# xmcd
#
# Track frame offsets:
#	150
#	7535
#	16590
#	32227
#	41372
#	58485
#	69210
#	92597
#	98997
#	110975
#	120915
#	126902
#	135065
#
# Disc length: 1888 seconds
#
# Revision: 1
# Processed by: cddbd v1.5.2PL0 Copyright (c) Steve Scherf et al.
# Submitted via: audiograbber 1.83.01
#
DISCID=98075e0d
DTITLE=Oscar P. Swamp - OSCAR P. SWAMP - Empty House
DYEAR=1900
DGENRE=Blues
TTITLE0=Homeswamp Rag
TTITLE1=Hail, Hail, Gohn' Budha
TTITLE2=Baptist On My Road
TTITLE3=Hard Night Healin' Sunrise
TTITLE4=To Make One
TTITLE5=Sinkin' These Blues
TTITLE6=Blowin' Back My Load
TTITLE7=Hard Day Healin' Sundown
TTITLE8=This Wreckened Machine
TTITLE9=Dead Morning Blues
TTITLE10=Down Yuppie Rag
TTITLE11=Where The Poor Men Gone
TTITLE12=Lao Tse Blues
EXTD=
EXTT0=
EXTT1=
EXTT2=
EXTT3=
EXTT4=
EXTT5=
EXTT6=
EXTT7=
EXTT8=
EXTT9=
EXTT10=
EXTT11=
EXTT12=
PLAYORDER=
